<svg width="18" height="18" viewBox="0 0 18 18" fill="none" xmlns="http://www.w3.org/2000/svg">
<path d="M1.5 6C1.5 5.7875 1.57187 5.60937 1.71562 5.46563C1.85937 5.32188 2.0375 5.25 2.25 5.25L14.25 5.25C14.4625 5.25 14.6406 5.32188 14.7844 5.46563C14.9281 5.60938 15 5.7875 15 6V7.5H16.5V10.5H15L15 12C15 12.2125 14.9281 12.3906 14.7844 12.5344C14.6406 12.6781 14.4625 12.75 14.25 12.75L2.25 12.75C2.0375 12.75 1.85937 12.6781 1.71562 12.5344C1.57187 12.3906 1.5 12.2125 1.5 12L1.5 6Z" fill="#E8EAED"/>
</svg>
