<svg width="14" height="12" viewBox="0 0 14 12" fill="none" xmlns="http://www.w3.org/2000/svg">
<path fill-rule="evenodd" clip-rule="evenodd" d="M5.58572 10.5C5.58572 11.25 6.21861 12 7 12C7.78139 12 8.41428 11.25 8.41428 10.5C8.41428 8.25006 5.58572 8.25006 5.58572 10.5ZM3.9996 7.31784L5.0002 8.37911C6.10264 7.20913 7.89736 7.20913 8.9998 8.37911L10.0004 7.31784C8.34286 5.56062 5.65714 5.56062 3.9996 7.31784ZM0 3.07512L0.999899 4.1364C4.30862 0.627228 9.69138 0.627228 13.0001 4.1364L14 3.07512C10.1341 -1.02504 3.86595 -1.02504 0 3.07512ZM12.0002 5.19694L11.0003 6.2573C8.79473 3.9181 5.20527 3.9181 2.9997 6.2573L1.9998 5.19694C4.76119 2.26825 9.23881 2.26825 12.0002 5.19694Z" fill="white"/>
</svg>
